<svg width="6951" height="212" viewBox="0 0 6951 212" fill="none" xmlns="http://www.w3.org/2000/svg">
<g opacity="0.5">
<path d="M41.6 51.144C51.072 51.144 59.3493 53.0213 66.432 56.776C73.5147 60.5307 78.976 65.8213 82.816 72.648C86.7413 79.3893 88.704 87.1973 88.704 96.072C88.704 104.861 86.7413 112.669 82.816 119.496C78.976 126.323 73.472 131.613 66.304 135.368C59.2213 139.123 50.9867 141 41.6 141H7.936V51.144H41.6ZM40.192 122.056C48.4693 122.056 54.912 119.795 59.52 115.272C64.128 110.749 66.432 104.349 66.432 96.072C66.432 87.7947 64.128 81.352 59.52 76.744C54.912 72.136 48.4693 69.832 40.192 69.832H29.824V122.056H40.192ZM146.76 141L128.072 107.08H122.824V141H100.936V51.144H137.672C144.755 51.144 150.771 52.3813 155.72 54.856C160.755 57.3307 164.509 60.744 166.984 65.096C169.459 69.3627 170.696 74.1413 170.696 79.432C170.696 85.4053 168.989 90.7387 165.576 95.432C162.248 100.125 157.299 103.453 150.728 105.416L171.464 141H146.76ZM122.824 91.592H136.392C140.403 91.592 143.389 90.6107 145.352 88.648C147.4 86.6853 148.424 83.912 148.424 80.328C148.424 76.9147 147.4 74.2267 145.352 72.264C143.389 70.3013 140.403 69.32 136.392 69.32H122.824V91.592ZM240.372 125.128H206.836L201.46 141H178.548L211.06 51.144H236.404L268.916 141H245.748L240.372 125.128ZM234.74 108.232L223.604 75.336L212.596 108.232H234.74ZM337.307 51.144V68.68H300.699V87.624H328.091V104.648H300.699V141H278.811V51.144H337.307ZM413.451 51.144V68.68H389.643V141H367.755V68.68H343.947V51.144H413.451ZM450.153 73.928C450.494 64.7973 453.481 57.7573 459.113 52.808C464.745 47.8587 472.382 45.384 482.025 45.384C488.425 45.384 493.886 46.4933 498.409 48.712C503.017 50.9307 506.473 53.96 508.777 57.8C511.166 61.64 512.361 65.9493 512.361 70.728C512.361 76.36 510.953 80.968 508.137 84.552C505.321 88.0507 502.036 90.44 498.281 91.72V92.232C503.145 93.8533 506.985 96.5413 509.801 100.296C512.617 104.051 514.025 108.872 514.025 114.76C514.025 120.051 512.788 124.744 510.313 128.84C507.924 132.851 504.382 136.008 499.689 138.312C495.081 140.616 489.577 141.768 483.177 141.768C472.937 141.768 464.745 139.251 458.601 134.216C452.542 129.181 449.342 121.587 449.001 111.432H470.249C470.334 115.187 471.401 118.173 473.449 120.392C475.497 122.525 478.484 123.592 482.409 123.592C485.737 123.592 488.297 122.653 490.089 120.776C491.966 118.813 492.905 116.253 492.905 113.096C492.905 109 491.582 106.056 488.937 104.264C486.377 102.387 482.238 101.448 476.521 101.448H472.425V83.656H476.521C480.873 83.656 484.372 82.9307 487.017 81.48C489.748 79.944 491.113 77.256 491.113 73.416C491.113 70.344 490.26 67.9547 488.553 66.248C486.846 64.5413 484.5 63.688 481.513 63.688C478.27 63.688 475.838 64.6693 474.217 66.632C472.681 68.5947 471.785 71.0267 471.529 73.928H450.153ZM658.33 86.984V105.16H557.21V86.984H658.33ZM804.071 51.144V141H782.183V87.112L762.087 141H744.423L724.199 86.984V141H702.311V51.144H728.167L753.383 113.352L778.343 51.144H804.071ZM841.699 68.68V86.856H871.011V103.752H841.699V123.464H874.851V141H819.811V51.144H874.851V68.68H841.699ZM990.821 51.144V141H968.933V87.112L948.837 141H931.173L910.949 86.984V141H889.061V51.144H914.917L940.133 113.352L965.093 51.144H990.821ZM1060.96 94.92C1066.17 96.0293 1070.35 98.632 1073.51 102.728C1076.66 106.739 1078.24 111.347 1078.24 116.552C1078.24 124.061 1075.6 130.035 1070.31 134.472C1065.1 138.824 1057.8 141 1048.42 141H1006.56V51.144H1047.01C1056.14 51.144 1063.27 53.2347 1068.39 57.416C1073.59 61.5973 1076.19 67.272 1076.19 74.44C1076.19 79.7307 1074.79 84.1253 1071.97 87.624C1069.24 91.1227 1065.57 93.5547 1060.96 94.92ZM1028.45 87.496H1042.79C1046.37 87.496 1049.1 86.728 1050.98 85.192C1052.94 83.5707 1053.92 81.224 1053.92 78.152C1053.92 75.08 1052.94 72.7333 1050.98 71.112C1049.1 69.4907 1046.37 68.68 1042.79 68.68H1028.45V87.496ZM1044.58 123.336C1048.25 123.336 1051.06 122.525 1053.03 120.904C1055.07 119.197 1056.1 116.765 1056.1 113.608C1056.1 110.451 1055.03 107.976 1052.9 106.184C1050.85 104.392 1047.99 103.496 1044.32 103.496H1028.45V123.336H1044.58ZM1112.82 68.68V86.856H1142.14V103.752H1112.82V123.464H1145.98V141H1090.94V51.144H1145.98V68.68H1112.82ZM1206.01 141L1187.32 107.08H1182.07V141H1160.19V51.144H1196.92C1204 51.144 1210.02 52.3813 1214.97 54.856C1220 57.3307 1223.76 60.744 1226.23 65.096C1228.71 69.3627 1229.95 74.1413 1229.95 79.432C1229.95 85.4053 1228.24 90.7387 1224.83 95.432C1221.5 100.125 1216.55 103.453 1209.98 105.416L1230.71 141H1206.01ZM1182.07 91.592H1195.64C1199.65 91.592 1202.64 90.6107 1204.6 88.648C1206.65 86.6853 1207.67 83.912 1207.67 80.328C1207.67 76.9147 1206.65 74.2267 1204.6 72.264C1202.64 70.3013 1199.65 69.32 1195.64 69.32H1182.07V91.592ZM1326.75 125.128H1293.21L1287.84 141H1264.92L1297.44 51.144H1322.78L1355.29 141H1332.12L1326.75 125.128ZM1321.12 108.232L1309.98 75.336L1298.97 108.232H1321.12ZM1361.47 95.944C1361.47 87.0693 1363.39 79.176 1367.23 72.264C1371.07 65.2667 1376.41 59.848 1383.23 56.008C1390.15 52.0827 1397.95 50.12 1406.66 50.12C1417.32 50.12 1426.46 52.936 1434.05 58.568C1441.64 64.2 1446.72 71.88 1449.28 81.608H1425.22C1423.43 77.8533 1420.87 74.9947 1417.54 73.032C1414.3 71.0693 1410.58 70.088 1406.4 70.088C1399.66 70.088 1394.2 72.4347 1390.02 77.128C1385.84 81.8213 1383.75 88.0933 1383.75 95.944C1383.75 103.795 1385.84 110.067 1390.02 114.76C1394.2 119.453 1399.66 121.8 1406.4 121.8C1410.58 121.8 1414.3 120.819 1417.54 118.856C1420.87 116.893 1423.43 114.035 1425.22 110.28H1449.28C1446.72 120.008 1441.64 127.688 1434.05 133.32C1426.46 138.867 1417.32 141.64 1406.66 141.64C1397.95 141.64 1390.15 139.72 1383.23 135.88C1376.41 131.955 1371.07 126.536 1367.23 119.624C1363.39 112.712 1361.47 104.819 1361.47 95.944ZM1527.33 51.144V68.68H1503.52V141H1481.63V68.68H1457.82V51.144H1527.33ZM1560.2 51.144V141H1538.31V51.144H1560.2ZM1660.41 51.144L1628.54 141H1601.15L1569.28 51.144H1592.57L1614.85 118.984L1637.25 51.144H1660.41ZM1725.5 125.128H1691.96L1686.59 141H1663.67L1696.19 51.144H1721.53L1754.04 141H1730.87L1725.5 125.128ZM1719.87 108.232L1708.73 75.336L1697.72 108.232H1719.87ZM1828.58 51.144V68.68H1804.77V141H1782.88V68.68H1759.07V51.144H1828.58ZM1861.45 51.144V141H1839.56V51.144H1861.45ZM1919.81 141.896C1911.36 141.896 1903.59 139.933 1896.51 136.008C1889.51 132.083 1883.92 126.621 1879.74 119.624C1875.65 112.541 1873.6 104.605 1873.6 95.816C1873.6 87.0267 1875.65 79.1333 1879.74 72.136C1883.92 65.1387 1889.51 59.6773 1896.51 55.752C1903.59 51.8267 1911.36 49.864 1919.81 49.864C1928.26 49.864 1935.98 51.8267 1942.98 55.752C1950.06 59.6773 1955.6 65.1387 1959.62 72.136C1963.71 79.1333 1965.76 87.0267 1965.76 95.816C1965.76 104.605 1963.71 112.541 1959.62 119.624C1955.52 126.621 1949.97 132.083 1942.98 136.008C1935.98 139.933 1928.26 141.896 1919.81 141.896ZM1919.81 121.928C1926.98 121.928 1932.69 119.539 1936.96 114.76C1941.31 109.981 1943.49 103.667 1943.49 95.816C1943.49 87.88 1941.31 81.5653 1936.96 76.872C1932.69 72.0933 1926.98 69.704 1919.81 69.704C1912.55 69.704 1906.75 72.0507 1902.4 76.744C1898.13 81.4373 1896 87.7947 1896 95.816C1896 103.752 1898.13 110.109 1902.4 114.888C1906.75 119.581 1912.55 121.928 1919.81 121.928ZM2058.32 141H2036.43L1999.82 85.576V141H1977.94V51.144H1999.82L2036.43 106.824V51.144H2058.32V141ZM2159.81 51.144V68.68H2123.2V87.624H2150.59V104.648H2123.2V141H2101.31V51.144H2159.81ZM2193.2 124.104H2221.87V141H2171.31V51.144H2193.2V124.104ZM2274.81 141.896C2266.36 141.896 2258.59 139.933 2251.51 136.008C2244.51 132.083 2238.92 126.621 2234.74 119.624C2230.65 112.541 2228.6 104.605 2228.6 95.816C2228.6 87.0267 2230.65 79.1333 2234.74 72.136C2238.92 65.1387 2244.51 59.6773 2251.51 55.752C2258.59 51.8267 2266.36 49.864 2274.81 49.864C2283.26 49.864 2290.98 51.8267 2297.98 55.752C2305.06 59.6773 2310.6 65.1387 2314.62 72.136C2318.71 79.1333 2320.76 87.0267 2320.76 95.816C2320.76 104.605 2318.71 112.541 2314.62 119.624C2310.52 126.621 2304.97 132.083 2297.98 136.008C2290.98 139.933 2283.26 141.896 2274.81 141.896ZM2274.81 121.928C2281.98 121.928 2287.69 119.539 2291.96 114.76C2296.31 109.981 2298.49 103.667 2298.49 95.816C2298.49 87.88 2296.31 81.5653 2291.96 76.872C2287.69 72.0933 2281.98 69.704 2274.81 69.704C2267.55 69.704 2261.75 72.0507 2257.4 76.744C2253.13 81.4373 2251 87.7947 2251 95.816C2251 103.752 2253.13 110.109 2257.4 114.888C2261.75 119.581 2267.55 121.928 2274.81 121.928ZM2456.58 51.144L2433.16 141H2406.66L2392.33 81.864L2377.48 141H2350.98L2328.2 51.144H2351.62L2364.55 116.552L2380.55 51.144H2404.62L2419.98 116.552L2433.03 51.144H2456.58ZM2543.45 19.4L2509.15 164.936H2488.03L2522.33 19.4H2543.45ZM2641.38 77.896C2641.38 85.32 2638.82 91.5067 2633.7 96.456C2628.66 101.32 2620.94 103.752 2610.53 103.752H2593.38V141H2581.73V51.784H2610.53C2620.6 51.784 2628.24 54.216 2633.44 59.08C2638.73 63.944 2641.38 70.216 2641.38 77.896ZM2610.53 94.152C2617.02 94.152 2621.8 92.744 2624.87 89.928C2627.94 87.112 2629.48 83.1013 2629.48 77.896C2629.48 66.888 2623.16 61.384 2610.53 61.384H2593.38V94.152H2610.53ZM2696.3 141.896C2688.03 141.896 2680.47 139.976 2673.65 136.136C2666.82 132.211 2661.4 126.792 2657.39 119.88C2653.47 112.883 2651.5 105.032 2651.5 96.328C2651.5 87.624 2653.47 79.816 2657.39 72.904C2661.4 65.9067 2666.82 60.488 2673.65 56.648C2680.47 52.7227 2688.03 50.76 2696.3 50.76C2704.67 50.76 2712.26 52.7227 2719.09 56.648C2725.91 60.488 2731.29 65.864 2735.22 72.776C2739.14 79.688 2741.1 87.5387 2741.1 96.328C2741.1 105.117 2739.14 112.968 2735.22 119.88C2731.29 126.792 2725.91 132.211 2719.09 136.136C2712.26 139.976 2704.67 141.896 2696.3 141.896ZM2696.3 131.784C2702.53 131.784 2708.12 130.333 2713.07 127.432C2718.11 124.531 2722.03 120.392 2724.85 115.016C2727.75 109.64 2729.2 103.411 2729.2 96.328C2729.2 89.16 2727.75 82.9307 2724.85 77.64C2722.03 72.264 2718.15 68.1253 2713.2 65.224C2708.25 62.3227 2702.62 60.872 2696.3 60.872C2689.99 60.872 2684.36 62.3227 2679.41 65.224C2674.46 68.1253 2670.53 72.264 2667.63 77.64C2664.82 82.9307 2663.41 89.16 2663.41 96.328C2663.41 103.411 2664.82 109.64 2667.63 115.016C2670.53 120.392 2674.46 124.531 2679.41 127.432C2684.44 130.333 2690.07 131.784 2696.3 131.784ZM2784.77 141.896C2778.88 141.896 2773.59 140.872 2768.9 138.824C2764.29 136.691 2760.66 133.789 2758.02 130.12C2755.37 126.365 2754.01 122.056 2753.92 117.192H2766.34C2766.76 121.373 2768.47 124.915 2771.46 127.816C2774.53 130.632 2778.97 132.04 2784.77 132.04C2790.32 132.04 2794.67 130.675 2797.83 127.944C2801.07 125.128 2802.69 121.544 2802.69 117.192C2802.69 113.779 2801.75 111.005 2799.87 108.872C2798 106.739 2795.65 105.117 2792.83 104.008C2790.02 102.899 2786.22 101.704 2781.44 100.424C2775.55 98.888 2770.82 97.352 2767.23 95.816C2763.73 94.28 2760.71 91.8907 2758.15 88.648C2755.67 85.32 2754.43 80.8827 2754.43 75.336C2754.43 70.472 2755.67 66.1627 2758.15 62.408C2760.62 58.6533 2764.08 55.752 2768.51 53.704C2773.04 51.656 2778.2 50.632 2784 50.632C2792.36 50.632 2799.19 52.7227 2804.48 56.904C2809.86 61.0853 2812.89 66.632 2813.57 73.544H2800.77C2800.34 70.1307 2798.55 67.144 2795.39 64.584C2792.24 61.9387 2788.05 60.616 2782.85 60.616C2777.99 60.616 2774.02 61.896 2770.95 64.456C2767.87 66.9307 2766.34 70.4293 2766.34 74.952C2766.34 78.1947 2767.23 80.84 2769.03 82.888C2770.9 84.936 2773.16 86.5147 2775.81 87.624C2778.54 88.648 2782.34 89.8427 2787.2 91.208C2793.09 92.8293 2797.83 94.4507 2801.41 96.072C2804.99 97.608 2808.07 100.04 2810.62 103.368C2813.19 106.611 2814.47 111.048 2814.47 116.68C2814.47 121.032 2813.31 125.128 2811.01 128.968C2808.71 132.808 2805.29 135.923 2800.77 138.312C2796.25 140.701 2790.91 141.896 2784.77 141.896ZM2886.52 51.784V61.256H2862.2V141H2850.55V61.256H2826.1V51.784H2886.52ZM2949.5 89.16V99.016H2898.42V89.16H2949.5ZM2983 61.256V91.08H3015.52V100.68H2983V131.4H3019.36V141H2971.36V51.656H3019.36V61.256H2983ZM3107.12 141H3095.48L3048.63 69.96V141H3036.98V51.656H3048.63L3095.48 122.568V51.656H3107.12V141ZM3173.96 141L3152.71 104.52H3138.63V141H3126.98V51.784H3155.78C3162.52 51.784 3168.2 52.936 3172.81 55.24C3177.5 57.544 3181 60.6587 3183.3 64.584C3185.61 68.5093 3186.76 72.9893 3186.76 78.024C3186.76 84.168 3184.97 89.5867 3181.38 94.28C3177.88 98.9733 3172.59 102.088 3165.51 103.624L3187.91 141H3173.96ZM3138.63 95.176H3155.78C3162.1 95.176 3166.83 93.64 3169.99 90.568C3173.15 87.4107 3174.73 83.2293 3174.73 78.024C3174.73 72.7333 3173.15 68.6373 3169.99 65.736C3166.92 62.8347 3162.18 61.384 3155.78 61.384H3138.63V95.176ZM3245.3 141.896C3237.03 141.896 3229.47 139.976 3222.65 136.136C3215.82 132.211 3210.4 126.792 3206.39 119.88C3202.47 112.883 3200.5 105.032 3200.5 96.328C3200.5 87.624 3202.47 79.816 3206.39 72.904C3210.4 65.9067 3215.82 60.488 3222.65 56.648C3229.47 52.7227 3237.03 50.76 3245.3 50.76C3253.67 50.76 3261.26 52.7227 3268.09 56.648C3274.91 60.488 3280.29 65.864 3284.22 72.776C3288.14 79.688 3290.1 87.5387 3290.1 96.328C3290.1 105.117 3288.14 112.968 3284.22 119.88C3280.29 126.792 3274.91 132.211 3268.09 136.136C3261.26 139.976 3253.67 141.896 3245.3 141.896ZM3245.3 131.784C3251.53 131.784 3257.12 130.333 3262.07 127.432C3267.11 124.531 3271.03 120.392 3273.85 115.016C3276.75 109.64 3278.2 103.411 3278.2 96.328C3278.2 89.16 3276.75 82.9307 3273.85 77.64C3271.03 72.264 3267.15 68.1253 3262.2 65.224C3257.25 62.3227 3251.62 60.872 3245.3 60.872C3238.99 60.872 3233.36 62.3227 3228.41 65.224C3223.46 68.1253 3219.53 72.264 3216.63 77.64C3213.82 82.9307 3212.41 89.16 3212.41 96.328C3212.41 103.411 3213.82 109.64 3216.63 115.016C3219.53 120.392 3223.46 124.531 3228.41 127.432C3233.44 130.333 3239.07 131.784 3245.3 131.784ZM3317.13 131.528H3348.36V141H3305.48V51.784H3317.13V131.528ZM3372.38 131.528H3403.61V141H3360.73V51.784H3372.38V131.528ZM3506.48 52.424V141H3494.83V74.952L3465.39 141H3457.2L3427.63 74.824V141H3415.98V52.424H3428.53L3461.29 125.64L3494.06 52.424H3506.48ZM3537.88 61.256V91.08H3570.39V100.68H3537.88V131.4H3574.23V141H3526.23V51.656H3574.23V61.256H3537.88ZM3662 141H3650.35L3603.5 69.96V141H3591.86V51.656H3603.5L3650.35 122.568V51.656H3662V141ZM3736.77 51.784V61.256H3712.45V141H3700.8V61.256H3676.35V51.784H3736.77Z" fill="black"/>
<line y1="207" x2="6951" y2="207" stroke="black" stroke-width="10"/>
</g>
</svg>
